<svg width="46" height="46" viewBox="0 0 46 46" fill="none" xmlns="http://www.w3.org/2000/svg">
<path d="M23 0C10.318 0 0 10.318 0 23C0 35.682 10.318 46 23 46C35.682 46 46 35.682 46 23C46 10.318 35.682 0 23 0ZM23 44.0834C11.3746 44.0834 1.91664 34.6254 1.91664 23C1.91664 11.3746 11.3746 1.91664 23 1.91664C34.6254 1.91664 44.0834 11.3746 44.0834 23C44.0834 34.6254 34.6254 44.0834 23 44.0834Z" fill="#32624C"/>
<path d="M34.7812 13.6975L18.2088 30.2699L9.30307 21.3642C8.92869 20.9898 8.32225 20.9898 7.94796 21.3642C7.57358 21.7386 7.57358 22.345 7.94796 22.7193L17.5313 32.3027C17.7185 32.4898 17.9637 32.5834 18.2089 32.5834C18.4541 32.5834 18.6993 32.4898 18.8865 32.3027L36.1365 15.0527C36.5109 14.6783 36.5109 14.0718 36.1365 13.6975C35.7621 13.3232 35.1556 13.3232 34.7812 13.6975Z" fill="#32624C"/>
</svg>
