<svg width="8" height="13" viewBox="0 0 8 13" fill="none" xmlns="http://www.w3.org/2000/svg">
<path d="M4.66071 11.7143C4.66071 12.1562 4.29911 12.5179 3.85714 12.5179C3.41518 12.5179 3.05357 12.1562 3.05357 11.7143C3.05357 11.2723 3.41518 10.9107 3.85714 10.9107C4.29911 10.9107 4.66071 11.2723 4.66071 11.7143ZM6.75 10.1071C6.75 10.2779 6.59933 10.4286 6.42857 10.4286H1.28571C1.11496 10.4286 0.964286 10.2779 0.964286 10.1071V3.03571C0.964286 2.86495 1.11496 2.71429 1.28571 2.71429H6.42857C6.59933 2.71429 6.75 2.86495 6.75 3.03571V10.1071ZM4.82143 1.58929C4.82143 1.67969 4.75112 1.75 4.66071 1.75H3.05357C2.96317 1.75 2.89286 1.67969 2.89286 1.58929C2.89286 1.49888 2.96317 1.42857 3.05357 1.42857H4.66071C4.75112 1.42857 4.82143 1.49888 4.82143 1.58929ZM7.71429 1.42857C7.71429 0.725446 7.1317 0.142857 6.42857 0.142857H1.28571C0.582589 0.142857 0 0.725446 0 1.42857V11.7143C0 12.4174 0.582589 13 1.28571 13H6.42857C7.1317 13 7.71429 12.4174 7.71429 11.7143V1.42857Z" fill="#9B9A9A"/>
</svg>
